Output #0, mpeg, to '02.mpg':
    Stream #0:0: Video: mpeg1video, yuv420p, 640x480, q=2-31, 400 kb/s, 25 tbn
[mpeg @ 0x5555655e7700] VBV buffer size not set, using default size of 230KB
If you want the mpeg file to be compliant to some specification
Like DVD, VCD or others, make sure you set the correct buffer size
视频编码
pts:0 pts_time:0 dts:-3600 dts_time:-0.04 duration:0 duration_time:0 stream_index:0
[mpeg @ 0x5555655e7700] buffer underflow st=0 bufi=11266 size=17234
[mpeg @ 0x5555655e7700] buffer underflow st=0 bufi=13307 size=17234
[mpeg @ 0x5555655e7700] buffer underflow st=0 bufi=15348 size=17234
pts:3600 pts_time:0.04 dts:0 dts_time:0 duration:0 duration_time:0 stream_index:0
[mpeg @ 0x5555655e7700] buffer underflow st=0 bufi=146 size=21047
[mpeg @ 0x5555655e7700] buffer underflow st=0 bufi=2187 size=21047
[mpeg @ 0x5555655e7700] buffer underflow st=0 bufi=4228 size=21047
[mpeg @ 0x5555655e7700] buffer underflow st=0 bufi=6269 size=21047
[mpeg @ 0x5555655e7700] buffer underflow st=0 bufi=8310 size=21047
[mpeg @ 0x5555655e7700] buffer underflow st=0 bufi=10351 size=21047
[mpeg @ 0x5555655e7700] buffer underflow st=0 bufi=12392 size=21047
[mpeg @ 0x5555655e7700] buffer underflow st=0 bufi=14433 size=21047
[mpeg @ 0x5555655e7700] buffer underflow st=0 bufi=16474 size=21047
[mpeg @ 0x5555655e7700] buffer underflow st=0 bufi=18515 size=21047
[mpeg @ 0x5555655e7700] buffer underflow st=0 bufi=20556 size=21047
pts:7200 pts_time:0.08 dts:3600 dts_time:0.04 duration:0 duration_time:0 stream_index:0
[mpeg @ 0x5555655e7700] buffer underflow st=0 bufi=1541 size=4695
[mpeg @ 0x5555655e7700] buffer underflow st=0 bufi=3582 size=4695
pts:10800 pts_time:0.12 dts:7200 dts_time:0.08 duration:0 duration_time:0 stream_index:0
[mpeg @ 0x5555655e7700] buffer underflow st=0 bufi=919 size=3365
[mpeg @ 0x5555655e7700] buffer underflow st=0 bufi=2960 size=3365
pts:14400 pts_time:0.16 dts:10800 dts_time:0.12 duration:0 duration_time:0 stream_index:0
[mpeg @ 0x5555655e7700] buffer underflow st=0 bufi=1627 size=3544
pts:18000 pts_time:0.2 dts:14400 dts_time:0.16 duration:0 duration_time:0 stream_index:0
[mpeg @ 0x5555655e7700] buffer underflow st=0 bufi=115 size=3332
[mpeg @ 0x5555655e7700] buffer underflow st=0 bufi=2156 size=3332
pts:21600 pts_time:0.24 dts:18000 dts_time:0.2 duration:0 duration_time:0 stream_index:0
[mpeg @ 0x5555655e7700] buffer underflow st=0 bufi=856 size=2902
pts:25200 pts_time:0.28 dts:21600 dts_time:0.24 duration:0 duration_time:0 stream_index:0
[mpeg @ 0x5555655e7700] buffer underflow st=0 bufi=2897 size=2902
[mpeg @ 0x5555655e7700] buffer underflow st=0 bufi=2027 size=2656
pts:28800 pts_time:0.32 dts:25200 dts_time:0.28 duration:0 duration_time:0 stream_index:0
[mpeg @ 0x5555655e7700] buffer underflow st=0 bufi=1403 size=2019
pts:32400 pts_time:0.36 dts:28800 dts_time:0.32 duration:0 duration_time:0 stream_index:0
[mpeg @ 0x5555655e7700] buffer underflow st=0 bufi=1416 size=19767
[mpeg @ 0x5555655e7700] buffer underflow st=0 bufi=3457 size=19767
[mpeg @ 0x5555655e7700] buffer underflow st=0 bufi=5498 size=19767
[mpeg @ 0x5555655e7700] buffer underflow st=0 bufi=7539 size=19767
[mpeg @ 0x5555655e7700] buffer underflow st=0 bufi=9580 size=19767
[mpeg @ 0x5555655e7700] buffer underflow st=0 bufi=11621 size=19767
[mpeg @ 0x5555655e7700] buffer underflow st=0 bufi=13662 size=19767
[mpeg @ 0x5555655e7700] buffer underflow st=0 bufi=15703 size=19767
[mpeg @ 0x5555655e7700] buffer underflow st=0 bufi=17744 size=19767
pts:36000 pts_time:0.4 dts:32400 dts_time:0.36 duration:0 duration_time:0 stream_index:0
[mpeg @ 0x5555655e7700] buffer underflow st=0 bufi=9 size=2191
[mpeg @ 0x5555655e7700] buffer underflow st=0 bufi=2050 size=2191
pts:39600 pts_time:0.44 dts:36000 dts_time:0.4 duration:0 duration_time:0 stream_index:0
[mpeg @ 0x5555655e7700] buffer underflow st=0 bufi=1891 size=27450
[mpeg @ 0x5555655e7700] buffer underflow st=0 bufi=3932 size=27450
[mpeg @ 0x5555655e7700] buffer underflow st=0 bufi=5961 size=27450
[mpeg @ 0x5555655e7700] buffer underflow st=0 bufi=8002 size=27450
[mpeg @ 0x5555655e7700] buffer underflow st=0 bufi=10043 size=27450
[mpeg @ 0x5555655e7700] buffer underflow st=0 bufi=12084 size=27450
[mpeg @ 0x5555655e7700] buffer underflow st=0 bufi=14125 size=27450
[mpeg @ 0x5555655e7700] buffer underflow st=0 bufi=16166 size=27450
[mpeg @ 0x5555655e7700] buffer underflow st=0 bufi=18207 size=27450
[mpeg @ 0x5555655e7700] buffer underflow st=0 bufi=20248 size=27450
[mpeg @ 0x5555655e7700] buffer underflow st=0 bufi=22289 size=27450
[mpeg @ 0x5555655e7700] buffer underflow st=0 bufi=24330 size=27450
[mpeg @ 0x5555655e7700] buffer underflow st=0 bufi=26371 size=27450
pts:43200 pts_time:0.48 dts:39600 dts_time:0.44 duration:0 duration_time:0 stream_index:0
[mpeg @ 0x5555655e7700] buffer underflow st=0 bufi=953 size=2951
pts:46800 pts_time:0.52 dts:43200 dts_time:0.48 duration:0 duration_time:0 stream_index:0
[mpeg @ 0x5555655e7700] buffer underflow st=0 bufi=34 size=1613
pts:50400 pts_time:0.56 dts:46800 dts_time:0.52 duration:0 duration_time:0 stream_index:0
[mpeg @ 0x5555655e7700] buffer underflow st=0 bufi=453 size=1670
pts:54000 pts_time:0.6 dts:50400 dts_time:0.56 duration:0 duration_time:0 stream_index:0
[mpeg @ 0x5555655e7700] buffer underflow st=0 bufi=815 size=1574
pts:57600 pts_time:0.64 dts:54000 dts_time:0.6 duration:0 duration_time:0 stream_index:0
[mpeg @ 0x5555655e7700] buffer underflow st=0 bufi=1273 size=3880
[mpeg @ 0x5555655e7700] buffer underflow st=0 bufi=3314 size=3880
pts:61200 pts_time:0.68 dts:57600 dts_time:0.64 duration:0 duration_time:0 stream_index:0
pts:64800 pts_time:0.72 dts:61200 dts_time:0.68 duration:0 duration_time:0 stream_index:0
[mpeg @ 0x5555655e7700] buffer underflow st=0 bufi=206 size=957
pts:68400 pts_time:0.76 dts:64800 dts_time:0.72 duration:0 duration_time:0 stream_index:0
[mpeg @ 0x5555655e7700] buffer underflow st=0 bufi=1281 size=6447
[mpeg @ 0x5555655e7700] buffer underflow st=0 bufi=3322 size=6447
[mpeg @ 0x5555655e7700] buffer underflow st=0 bufi=5363 size=6447
pts:72000 pts_time:0.8 dts:68400 dts_time:0.76 duration:0 duration_time:0 stream_index:0
[mpeg @ 0x5555655e7700] buffer underflow st=0 bufi=948 size=2037
pts:75600 pts_time:0.84 dts:72000 dts_time:0.8 duration:0 duration_time:0 stream_index:0
[mpeg @ 0x5555655e7700] buffer underflow st=0 bufi=943 size=1228
pts:79200 pts_time:0.88 dts:75600 dts_time:0.84 duration:0 duration_time:0 stream_index:0
pts:82800 pts_time:0.92 dts:79200 dts_time:0.88 duration:0 duration_time:0 stream_index:0
[mpeg @ 0x5555655e7700] buffer underflow st=0 bufi=598 size=22825
[mpeg @ 0x5555655e7700] buffer underflow st=0 bufi=2639 size=22825
[mpeg @ 0x5555655e7700] buffer underflow st=0 bufi=4680 size=22825
[mpeg @ 0x5555655e7700] buffer underflow st=0 bufi=6721 size=22825
[mpeg @ 0x5555655e7700] buffer underflow st=0 bufi=8762 size=22825
[mpeg @ 0x5555655e7700] buffer underflow st=0 bufi=10803 size=22825
[mpeg @ 0x5555655e7700] buffer underflow st=0 bufi=12844 size=22825
[mpeg @ 0x5555655e7700] buffer underflow st=0 bufi=14885 size=22825
[mpeg @ 0x5555655e7700] buffer underflow st=0 bufi=16926 size=22825
[mpeg @ 0x5555655e7700] buffer underflow st=0 bufi=18967 size=22825
[mpeg @ 0x5555655e7700] buffer underflow st=0 bufi=21008 size=22825
pts:86400 pts_time:0.96 dts:82800 dts_time:0.92 duration:0 duration_time:0 stream_index:0
[mpeg @ 0x5555655e7700] buffer underflow st=0 bufi=215 size=3707
[mpeg @ 0x5555655e7700] buffer underflow st=0 bufi=2256 size=3707
pts:90000 pts_time:1 dts:86400 dts_time:0.96 duration:0 duration_time:0 stream_index:0
[mpeg @ 0x5555655e7700] buffer underflow st=0 bufi=581 size=1141
pts:93600 pts_time:1.04 dts:90000 dts_time:1 duration:0 duration_time:0 stream_index:0
pts:97200 pts_time:1.08 dts:93600 dts_time:1.04 duration:0 duration_time:0 stream_index:0
[mpeg @ 0x5555655e7700] buffer underflow st=0 bufi=849 size=1204
pts:100800 pts_time:1.12 dts:97200 dts_time:1.08 duration:0 duration_time:0 stream_index:0
pts:104400 pts_time:1.16 dts:100800 dts_time:1.12 duration:0 duration_time:0 stream_index:0
[mpeg @ 0x5555655e7700] buffer underflow st=0 bufi=114 size=1648
pts:108000 pts_time:1.2 dts:104400 dts_time:1.16 duration:0 duration_time:0 stream_index:0
[mpeg @ 0x5555655e7700] buffer underflow st=0 bufi=498 size=896
pts:111600 pts_time:1.24 dts:108000 dts_time:1.2 duration:0 duration_time:0 stream_index:0
pts:115200 pts_time:1.28 dts:111600 dts_time:1.24 duration:0 duration_time:0 stream_index:0
[mpeg @ 0x5555655e7700] buffer underflow st=0 bufi=280 size=910
pts:118800 pts_time:1.32 dts:115200 dts_time:1.28 duration:0 duration_time:0 stream_index:0
pts:122400 pts_time:1.36 dts:118800 dts_time:1.32 duration:0 duration_time:0 stream_index:0
pts:126000 pts_time:1.4 dts:122400 dts_time:1.36 duration:0 duration_time:0 stream_index:0
[mpeg @ 0x5555655e7700] buffer underflow st=0 bufi=641 size=643
[mpeg @ 0x5555655e7700] buffer underflow st=0 bufi=2030 size=30862
[mpeg @ 0x5555655e7700] buffer underflow st=0 bufi=4071 size=30862
[mpeg @ 0x5555655e7700] buffer underflow st=0 bufi=6112 size=30862
[mpeg @ 0x5555655e7700] buffer underflow st=0 bufi=8153 size=30862
[mpeg @ 0x5555655e7700] buffer underflow st=0 bufi=10194 size=30862
[mpeg @ 0x5555655e7700] buffer underflow st=0 bufi=12235 size=30862
[mpeg @ 0x5555655e7700] buffer underflow st=0 bufi=14276 size=30862
[mpeg @ 0x5555655e7700] buffer underflow st=0 bufi=16317 size=30862
[mpeg @ 0x5555655e7700] buffer underflow st=0 bufi=18358 size=30862
[mpeg @ 0x5555655e7700] buffer underflow st=0 bufi=20399 size=30862
[mpeg @ 0x5555655e7700] buffer underflow st=0 bufi=22428 size=30862
[mpeg @ 0x5555655e7700] buffer underflow st=0 bufi=24469 size=30862
[mpeg @ 0x5555655e7700] buffer underflow st=0 bufi=26510 size=30862
[mpeg @ 0x5555655e7700] buffer underflow st=0 bufi=28551 size=30862
[mpeg @ 0x5555655e7700] buffer underflow st=0 bufi=30592 size=30862
pts:129600 pts_time:1.44 dts:126000 dts_time:1.4 duration:0 duration_time:0 stream_index:0
[mpeg @ 0x5555655e7700] buffer underflow st=0 bufi=1762 size=2723
pts:133200 pts_time:1.48 dts:129600 dts_time:1.44 duration:0 duration_time:0 stream_index:0
[mpeg @ 0x5555655e7700] buffer underflow st=0 bufi=1071 size=6271
[mpeg @ 0x5555655e7700] buffer underflow st=0 bufi=3112 size=6271
[mpeg @ 0x5555655e7700] buffer underflow st=0 bufi=5153 size=6271
pts:136800 pts_time:1.52 dts:133200 dts_time:1.48 duration:0 duration_time:0 stream_index:0
[mpeg @ 0x5555655e7700] buffer underflow st=0 bufi=914 size=1107
pts:140400 pts_time:1.56 dts:136800 dts_time:1.52 duration:0 duration_time:0 stream_index:0
pts:144000 pts_time:1.6 dts:140400 dts_time:1.56 duration:0 duration_time:0 stream_index:0
pts:147600 pts_time:1.64 dts:144000 dts_time:1.6 duration:0 duration_time:0 stream_index:0
[mpeg @ 0x5555655e7700] buffer underflow st=0 bufi=526 size=690
pts:151200 pts_time:1.68 dts:147600 dts_time:1.64 duration:0 duration_time:0 stream_index:0
[mpeg @ 0x5555655e7700] buffer underflow st=0 bufi=1868 size=2994
pts:154800 pts_time:1.72 dts:151200 dts_time:1.68 duration:0 duration_time:0 stream_index:0
pts:158400 pts_time:1.76 dts:154800 dts_time:1.72 duration:0 duration_time:0 stream_index:0
[mpeg @ 0x5555655e7700] buffer underflow st=0 bufi=289 size=373
pts:162000 pts_time:1.8 dts:158400 dts_time:1.76 duration:0 duration_time:0 stream_index:0
pts:165600 pts_time:1.84 dts:162000 dts_time:1.8 duration:0 duration_time:0 stream_index:0
[mpeg @ 0x5555655e7700] buffer underflow st=0 bufi=977 size=2657
pts:169200 pts_time:1.88 dts:165600 dts_time:1.84 duration:0 duration_time:0 stream_index:0
[mpeg @ 0x5555655e7700] buffer underflow st=0 bufi=352 size=33616
[mpeg @ 0x5555655e7700] buffer underflow st=0 bufi=2393 size=33616
[mpeg @ 0x5555655e7700] buffer underflow st=0 bufi=4434 size=33616
[mpeg @ 0x5555655e7700] buffer underflow st=0 bufi=6475 size=33616
[mpeg @ 0x5555655e7700] buffer underflow st=0 bufi=8516 size=33616
[mpeg @ 0x5555655e7700] buffer underflow st=0 bufi=10557 size=33616
[mpeg @ 0x5555655e7700] buffer underflow st=0 bufi=12598 size=33616
[mpeg @ 0x5555655e7700] buffer underflow st=0 bufi=14639 size=33616
[mpeg @ 0x5555655e7700] buffer underflow st=0 bufi=16680 size=33616
[mpeg @ 0x5555655e7700] buffer underflow st=0 bufi=18721 size=33616
[mpeg @ 0x5555655e7700] buffer underflow st=0 bufi=20762 size=33616
[mpeg @ 0x5555655e7700] buffer underflow st=0 bufi=22803 size=33616
[mpeg @ 0x5555655e7700] buffer underflow st=0 bufi=24844 size=33616
[mpeg @ 0x5555655e7700] buffer underflow st=0 bufi=26885 size=33616
[mpeg @ 0x5555655e7700] buffer underflow st=0 bufi=28926 size=33616
[mpeg @ 0x5555655e7700] buffer underflow st=0 bufi=30967 size=33616
[mpeg @ 0x5555655e7700] buffer underflow st=0 bufi=33008 size=33616
pts:172800 pts_time:1.92 dts:169200 dts_time:1.88 duration:0 duration_time:0 stream_index:0
pts:176400 pts_time:1.96 dts:172800 dts_time:1.92 duration:0 duration_time:0 stream_index:0
pts:180000 pts_time:2 dts:176400 dts_time:1.96 duration:0 duration_time:0 stream_index:0
[mpeg @ 0x5555655e7700] buffer underflow st=0 bufi=1257 size=2103
pts:183600 pts_time:2.04 dts:180000 dts_time:2 duration:0 duration_time:0 stream_index:0
pts:187200 pts_time:2.08 dts:183600 dts_time:2.04 duration:0 duration_time:0 stream_index:0
[mpeg @ 0x5555655e7700] buffer underflow st=0 bufi=1102 size=7553
[mpeg @ 0x5555655e7700] buffer underflow st=0 bufi=3143 size=7553
[mpeg @ 0x5555655e7700] buffer underflow st=0 bufi=5184 size=7553
[mpeg @ 0x5555655e7700] buffer underflow st=0 bufi=7225 size=7553
pts:190800 pts_time:2.12 dts:187200 dts_time:2.08 duration:0 duration_time:0 stream_index:0
pts:194400 pts_time:2.16 dts:190800 dts_time:2.12 duration:0 duration_time:0 stream_index:0
[mpeg @ 0x5555655e7700] buffer underflow st=0 bufi=425 size=549
pts:198000 pts_time:2.2 dts:194400 dts_time:2.16 duration:0 duration_time:0 stream_index:0
pts:201600 pts_time:2.24 dts:198000 dts_time:2.2 duration:0 duration_time:0 stream_index:0
pts:205200 pts_time:2.28 dts:201600 dts_time:2.24 duration:0 duration_time:0 stream_index:0
[mpeg @ 0x5555655e7700] buffer underflow st=0 bufi=982 size=1922
pts:208800 pts_time:2.32 dts:205200 dts_time:2.28 duration:0 duration_time:0 stream_index:0
pts:212400 pts_time:2.36 dts:208800 dts_time:2.32 duration:0 duration_time:0 stream_index:0
[mpeg @ 0x5555655e7700] buffer underflow st=0 bufi=263 size=24510
[mpeg @ 0x5555655e7700] buffer underflow st=0 bufi=2304 size=24510
[mpeg @ 0x5555655e7700] buffer underflow st=0 bufi=4345 size=24510
[mpeg @ 0x5555655e7700] buffer underflow st=0 bufi=6386 size=24510
[mpeg @ 0x5555655e7700] buffer underflow st=0 bufi=8427 size=24510
[mpeg @ 0x5555655e7700] buffer underflow st=0 bufi=10468 size=24510
[mpeg @ 0x5555655e7700] buffer underflow st=0 bufi=12509 size=24510
[mpeg @ 0x5555655e7700] buffer underflow st=0 bufi=14550 size=24510
[mpeg @ 0x5555655e7700] buffer underflow st=0 bufi=16591 size=24510
[mpeg @ 0x5555655e7700] buffer underflow st=0 bufi=18632 size=24510
[mpeg @ 0x5555655e7700] buffer underflow st=0 bufi=20673 size=24510
[mpeg @ 0x5555655e7700] buffer underflow st=0 bufi=22714 size=24510
pts:216000 pts_time:2.4 dts:212400 dts_time:2.36 duration:0 duration_time:0 stream_index:0
[mpeg @ 0x5555655e7700] buffer underflow st=0 bufi=236 size=408
pts:219600 pts_time:2.44 dts:216000 dts_time:2.4 duration:0 duration_time:0 stream_index:0
pts:223200 pts_time:2.48 dts:219600 dts_time:2.44 duration:0 duration_time:0 stream_index:0
pts:226800 pts_time:2.52 dts:223200 dts_time:2.48 duration:0 duration_time:0 stream_index:0
[mpeg @ 0x5555655e7700] buffer underflow st=0 bufi=1034 size=3592
[mpeg @ 0x5555655e7700] buffer underflow st=0 bufi=3063 size=3592
pts:230400 pts_time:2.56 dts:226800 dts_time:2.52 duration:0 duration_time:0 stream_index:0
pts:234000 pts_time:2.6 dts:230400 dts_time:2.56 duration:0 duration_time:0 stream_index:0
pts:237600 pts_time:2.64 dts:234000 dts_time:2.6 duration:0 duration_time:0 stream_index:0
[mpeg @ 0x5555655e7700] buffer underflow st=0 bufi=147 size=1737
pts:241200 pts_time:2.68 dts:237600 dts_time:2.64 duration:0 duration_time:0 stream_index:0
pts:244800 pts_time:2.72 dts:241200 dts_time:2.68 duration:0 duration_time:0 stream_index:0
[mpeg @ 0x5555655e7700] buffer underflow st=0 bufi=184 size=1734
pts:248400 pts_time:2.76 dts:244800 dts_time:2.72 duration:0 duration_time:0 stream_index:0
[mpeg @ 0x5555655e7700] buffer underflow st=0 bufi=482 size=5081
[mpeg @ 0x5555655e7700] buffer underflow st=0 bufi=2523 size=5081
[mpeg @ 0x5555655e7700] buffer underflow st=0 bufi=4564 size=5081
pts:252000 pts_time:2.8 dts:248400 dts_time:2.76 duration:0 duration_time:0 stream_index:0
pts:255600 pts_time:2.84 dts:252000 dts_time:2.8 duration:0 duration_time:0 stream_index:0
[mpeg @ 0x5555655e7700] buffer underflow st=0 bufi=449 size=19771
[mpeg @ 0x5555655e7700] buffer underflow st=0 bufi=2490 size=19771
[mpeg @ 0x5555655e7700] buffer underflow st=0 bufi=4531 size=19771
[mpeg @ 0x5555655e7700] buffer underflow st=0 bufi=6572 size=19771
[mpeg @ 0x5555655e7700] buffer underflow st=0 bufi=8613 size=19771
[mpeg @ 0x5555655e7700] buffer underflow st=0 bufi=10654 size=19771
[mpeg @ 0x5555655e7700] buffer underflow st=0 bufi=12695 size=19771
[mpeg @ 0x5555655e7700] buffer underflow st=0 bufi=14736 size=19771
[mpeg @ 0x5555655e7700] buffer underflow st=0 bufi=16777 size=19771
[mpeg @ 0x5555655e7700] buffer underflow st=0 bufi=18818 size=19771
pts:259200 pts_time:2.88 dts:255600 dts_time:2.84 duration:0 duration_time:0 stream_index:0
pts:262800 pts_time:2.92 dts:259200 dts_time:2.88 duration:0 duration_time:0 stream_index:0
[mpeg @ 0x5555655e7700] buffer underflow st=0 bufi=587 size=808
pts:266400 pts_time:2.96 dts:262800 dts_time:2.92 duration:0 duration_time:0 stream_index:0
pts:270000 pts_time:3 dts:266400 dts_time:2.96 duration:0 duration_time:0 stream_index:0
[mpeg @ 0x5555655e7700] buffer underflow st=0 bufi=589 size=632
pts:273600 pts_time:3.04 dts:270000 dts_time:3 duration:0 duration_time:0 stream_index:0
[mpeg @ 0x5555655e7700] buffer underflow st=0 bufi=1989 size=2013
pts:277200 pts_time:3.08 dts:273600 dts_time:3.04 duration:0 duration_time:0 stream_index:0
pts:280800 pts_time:3.12 dts:277200 dts_time:3.08 duration:0 duration_time:0 stream_index:0
pts:284400 pts_time:3.16 dts:280800 dts_time:3.12 duration:0 duration_time:0 stream_index:0
[mpeg @ 0x5555655e7700] buffer underflow st=0 bufi=964 size=1665
pts:288000 pts_time:3.2 dts:284400 dts_time:3.16 duration:0 duration_time:0 stream_index:0
[mpeg @ 0x5555655e7700] buffer underflow st=0 bufi=1331 size=2880
pts:291600 pts_time:3.24 dts:288000 dts_time:3.2 duration:0 duration_time:0 stream_index:0
pts:295200 pts_time:3.28 dts:291600 dts_time:3.24 duration:0 duration_time:0 stream_index:0
pts:298800 pts_time:3.32 dts:295200 dts_time:3.28 duration:0 duration_time:0 stream_index:0
[mpeg @ 0x5555655e7700] buffer underflow st=0 bufi=264 size=25262
[mpeg @ 0x5555655e7700] buffer underflow st=0 bufi=2305 size=25262
[mpeg @ 0x5555655e7700] buffer underflow st=0 bufi=4346 size=25262
[mpeg @ 0x5555655e7700] buffer underflow st=0 bufi=6387 size=25262
[mpeg @ 0x5555655e7700] buffer underflow st=0 bufi=8428 size=25262
[mpeg @ 0x5555655e7700] buffer underflow st=0 bufi=10469 size=25262
[mpeg @ 0x5555655e7700] buffer underflow st=0 bufi=12510 size=25262
[mpeg @ 0x5555655e7700] buffer underflow st=0 bufi=14551 size=25262
[mpeg @ 0x5555655e7700] buffer underflow st=0 bufi=16592 size=25262
[mpeg @ 0x5555655e7700] buffer underflow st=0 bufi=18633 size=25262
[mpeg @ 0x5555655e7700] buffer underflow st=0 bufi=20674 size=25262
[mpeg @ 0x5555655e7700] buffer underflow st=0 bufi=22715 size=25262
[mpeg @ 0x5555655e7700] buffer underflow st=0 bufi=24756 size=25262
pts:302400 pts_time:3.36 dts:298800 dts_time:3.32 duration:0 duration_time:0 stream_index:0
pts:306000 pts_time:3.4 dts:302400 dts_time:3.36 duration:0 duration_time:0 stream_index:0
pts:309600 pts_time:3.44 dts:306000 dts_time:3.4 duration:0 duration_time:0 stream_index:0
[mpeg @ 0x5555655e7700] buffer underflow st=0 bufi=1133 size=5140
[mpeg @ 0x5555655e7700] buffer underflow st=0 bufi=3174 size=5140
pts:313200 pts_time:3.48 dts:309600 dts_time:3.44 duration:0 duration_time:0 stream_index:0
[mpeg @ 0x5555655e7700] buffer underflow st=0 bufi=66 size=83
pts:316800 pts_time:3.52 dts:313200 dts_time:3.48 duration:0 duration_time:0 stream_index:0
pts:320400 pts_time:3.56 dts:316800 dts_time:3.52 duration:0 duration_time:0 stream_index:0
[mpeg @ 0x5555655e7700] buffer underflow st=0 bufi=1932 size=5069
[mpeg @ 0x5555655e7700] buffer underflow st=0 bufi=3973 size=5069
pts:324000 pts_time:3.6 dts:320400 dts_time:3.56 duration:0 duration_time:0 stream_index:0
[mpeg @ 0x5555655e7700] buffer underflow st=0 bufi=936 size=1331
pts:327600 pts_time:3.64 dts:324000 dts_time:3.6 duration:0 duration_time:0 stream_index:0
pts:331200 pts_time:3.68 dts:327600 dts_time:3.64 duration:0 duration_time:0 stream_index:0
pts:334800 pts_time:3.72 dts:331200 dts_time:3.68 duration:0 duration_time:0 stream_index:0
[mpeg @ 0x5555655e7700] buffer underflow st=0 bufi=818 size=1329
pts:338400 pts_time:3.76 dts:334800 dts_time:3.72 duration:0 duration_time:0 stream_index:0
pts:342000 pts_time:3.8 dts:338400 dts_time:3.76 duration:0 duration_time:0 stream_index:0
[mpeg @ 0x5555655e7700] buffer underflow st=0 bufi=1049 size=25543
[mpeg @ 0x5555655e7700] buffer underflow st=0 bufi=3090 size=25543
[mpeg @ 0x5555655e7700] buffer underflow st=0 bufi=5131 size=25543
[mpeg @ 0x5555655e7700] buffer underflow st=0 bufi=7172 size=25543
[mpeg @ 0x5555655e7700] buffer underflow st=0 bufi=9213 size=25543
[mpeg @ 0x5555655e7700] buffer underflow st=0 bufi=11254 size=25543
[mpeg @ 0x5555655e7700] buffer underflow st=0 bufi=13295 size=25543
[mpeg @ 0x5555655e7700] buffer underflow st=0 bufi=15336 size=25543
[mpeg @ 0x5555655e7700] buffer underflow st=0 bufi=17377 size=25543
[mpeg @ 0x5555655e7700] buffer underflow st=0 bufi=19418 size=25543
[mpeg @ 0x5555655e7700] buffer underflow st=0 bufi=21459 size=25543
[mpeg @ 0x5555655e7700] buffer underflow st=0 bufi=23488 size=25543
[mpeg @ 0x5555655e7700] buffer underflow st=0 bufi=25529 size=25543
pts:345600 pts_time:3.84 dts:342000 dts_time:3.8 duration:0 duration_time:0 stream_index:0
pts:349200 pts_time:3.88 dts:345600 dts_time:3.84 duration:0 duration_time:0 stream_index:0
pts:352800 pts_time:3.92 dts:349200 dts_time:3.88 duration:0 duration_time:0 stream_index:0
[mpeg @ 0x5555655e7700] buffer underflow st=0 bufi=1525 size=3640
[mpeg @ 0x5555655e7700] buffer underflow st=0 bufi=3566 size=3640
pts:356400 pts_time:3.96 dts:352800 dts_time:3.92 duration:0 duration_time:0 stream_index:0
pts:360000 pts_time:4 dts:356400 dts_time:3.96 duration:0 duration_time:0 stream_index:0
[mpeg @ 0x5555655e7700] buffer underflow st=0 bufi=1059 size=21808
[mpeg @ 0x5555655e7700] buffer underflow st=0 bufi=3100 size=21808
[mpeg @ 0x5555655e7700] buffer underflow st=0 bufi=5141 size=21808
[mpeg @ 0x5555655e7700] buffer underflow st=0 bufi=7182 size=21808
[mpeg @ 0x5555655e7700] buffer underflow st=0 bufi=9223 size=21808
[mpeg @ 0x5555655e7700] buffer underflow st=0 bufi=11264 size=21808
[mpeg @ 0x5555655e7700] buffer underflow st=0 bufi=13305 size=21808
[mpeg @ 0x5555655e7700] buffer underflow st=0 bufi=15346 size=21808
[mpeg @ 0x5555655e7700] buffer underflow st=0 bufi=17387 size=21808
[mpeg @ 0x5555655e7700] buffer underflow st=0 bufi=19428 size=21808
[mpeg @ 0x5555655e7700] buffer underflow st=0 bufi=21469 size=21808
pts:363600 pts_time:4.04 dts:360000 dts_time:4 duration:0 duration_time:0 stream_index:0
[mpeg @ 0x5555655e7700] buffer underflow st=0 bufi=1693 size=4924
[mpeg @ 0x5555655e7700] buffer underflow st=0 bufi=3734 size=4924
pts:367200 pts_time:4.08 dts:363600 dts_time:4.04 duration:0 duration_time:0 stream_index:0
[mpeg @ 0x5555655e7700] buffer underflow st=0 bufi=842 size=3800
[mpeg @ 0x5555655e7700] buffer underflow st=0 bufi=2883 size=3800
pts:370800 pts_time:4.12 dts:367200 dts_time:4.08 duration:0 duration_time:0 stream_index:0
[mpeg @ 0x5555655e7700] buffer underflow st=0 bufi=1115 size=3179
[mpeg @ 0x5555655e7700] buffer underflow st=0 bufi=3156 size=3179
pts:374400 pts_time:4.16 dts:370800 dts_time:4.12 duration:0 duration_time:0 stream_index:0
[mpeg @ 0x5555655e7700] buffer underflow st=0 bufi=2009 size=2415
pts:378000 pts_time:4.2 dts:374400 dts_time:4.16 duration:0 duration_time:0 stream_index:0
[mpeg @ 0x5555655e7700] buffer underflow st=0 bufi=1626 size=3449
pts:381600 pts_time:4.24 dts:378000 dts_time:4.2 duration:0 duration_time:0 stream_index:0
[mpeg @ 0x5555655e7700] buffer underflow st=0 bufi=209 size=3325
[mpeg @ 0x5555655e7700] buffer underflow st=0 bufi=2250 size=3325
pts:385200 pts_time:4.28 dts:381600 dts_time:4.24 duration:0 duration_time:0 stream_index:0
[mpeg @ 0x5555655e7700] buffer underflow st=0 bufi=957 size=12799
[mpeg @ 0x5555655e7700] buffer underflow st=0 bufi=2998 size=12799
[mpeg @ 0x5555655e7700] buffer underflow st=0 bufi=5039 size=12799
[mpeg @ 0x5555655e7700] buffer underflow st=0 bufi=7080 size=12799
[mpeg @ 0x5555655e7700] buffer underflow st=0 bufi=9121 size=12799
[mpeg @ 0x5555655e7700] buffer underflow st=0 bufi=11162 size=12799
pts:388800 pts_time:4.32 dts:385200 dts_time:4.28 duration:0 duration_time:0 stream_index:0
[mpeg @ 0x5555655e7700] buffer underflow st=0 bufi=395 size=3481
[mpeg @ 0x5555655e7700] buffer underflow st=0 bufi=2436 size=3481
pts:392400 pts_time:4.36 dts:388800 dts_time:4.32 duration:0 duration_time:0 stream_index:0
[mpeg @ 0x5555655e7700] buffer underflow st=0 bufi=987 size=1898
pts:396000 pts_time:4.4 dts:392400 dts_time:4.36 duration:0 duration_time:0 stream_index:0
[mpeg @ 0x5555655e7700] buffer underflow st=0 bufi=1121 size=3172
[mpeg @ 0x5555655e7700] buffer underflow st=0 bufi=3162 size=3172
pts:399600 pts_time:4.44 dts:396000 dts_time:4.4 duration:0 duration_time:0 stream_index:0
pts:403200 pts_time:4.48 dts:399600 dts_time:4.44 duration:0 duration_time:0 stream_index:0
[mpeg @ 0x5555655e7700] buffer underflow st=0 bufi=353 size=1991
pts:406800 pts_time:4.52 dts:403200 dts_time:4.48 duration:0 duration_time:0 stream_index:0
[mpeg @ 0x5555655e7700] buffer underflow st=0 bufi=394 size=3518
[mpeg @ 0x5555655e7700] buffer underflow st=0 bufi=2435 size=3518
pts:410400 pts_time:4.56 dts:406800 dts_time:4.52 duration:0 duration_time:0 stream_index:0
[mpeg @ 0x5555655e7700] buffer underflow st=0 bufi=949 size=2983
pts:414000 pts_time:4.6 dts:410400 dts_time:4.56 duration:0 duration_time:0 stream_index:0
[mpeg @ 0x5555655e7700] buffer underflow st=0 bufi=7 size=3019
[mpeg @ 0x5555655e7700] buffer underflow st=0 bufi=2048 size=3019
pts:417600 pts_time:4.64 dts:414000 dts_time:4.6 duration:0 duration_time:0 stream_index:0
[mpeg @ 0x5555655e7700] buffer underflow st=0 bufi=1061 size=1998
pts:421200 pts_time:4.68 dts:417600 dts_time:4.64 duration:0 duration_time:0 stream_index:0
[mpeg @ 0x5555655e7700] buffer underflow st=0 bufi=1095 size=1850
pts:424800 pts_time:4.72 dts:421200 dts_time:4.68 duration:0 duration_time:0 stream_index:0
[mpeg @ 0x5555655e7700] buffer underflow st=0 bufi=1277 size=3241
pts:428400 pts_time:4.76 dts:424800 dts_time:4.72 duration:0 duration_time:0 stream_index:0
[mpeg @ 0x5555655e7700] buffer underflow st=0 bufi=68 size=9702
[mpeg @ 0x5555655e7700] buffer underflow st=0 bufi=2109 size=9702
[mpeg @ 0x5555655e7700] buffer underflow st=0 bufi=4150 size=9702
[mpeg @ 0x5555655e7700] buffer underflow st=0 bufi=6191 size=9702
[mpeg @ 0x5555655e7700] buffer underflow st=0 bufi=8232 size=9702
pts:432000 pts_time:4.8 dts:428400 dts_time:4.76 duration:0 duration_time:0 stream_index:0
[mpeg @ 0x5555655e7700] buffer underflow st=0 bufi=562 size=1811
pts:435600 pts_time:4.84 dts:432000 dts_time:4.8 duration:0 duration_time:0 stream_index:0
[mpeg @ 0x5555655e7700] buffer underflow st=0 bufi=783 size=2094
pts:439200 pts_time:4.88 dts:435600 dts_time:4.84 duration:0 duration_time:0 stream_index:0
[mpeg @ 0x5555655e7700] buffer underflow st=0 bufi=694 size=2836
[mpeg @ 0x5555655e7700] buffer underflow st=0 bufi=2735 size=2836
pts:442800 pts_time:4.92 dts:439200 dts_time:4.88 duration:0 duration_time:0 stream_index:0
pts:446400 pts_time:4.96 dts:442800 dts_time:4.92 duration:0 duration_time:0 stream_index:0
[mpeg @ 0x5555655e7700] buffer underflow st=0 bufi=362 size=2161
pts:450000 pts_time:5 dts:446400 dts_time:4.96 duration:0 duration_time:0 stream_index:0
[mpeg @ 0x5555655e7700] buffer underflow st=0 bufi=233 size=2839
[mpeg @ 0x5555655e7700] buffer underflow st=0 bufi=2274 size=2839
pts:453600 pts_time:5.04 dts:450000 dts_time:5 duration:0 duration_time:0 stream_index:0
[mpeg @ 0x5555655e7700] buffer underflow st=0 bufi=1467 size=2750
pts:457200 pts_time:5.08 dts:453600 dts_time:5.04 duration:0 duration_time:0 stream_index:0
[mpeg @ 0x5555655e7700] buffer underflow st=0 bufi=749 size=1547
pts:460800 pts_time:5.12 dts:457200 dts_time:5.08 duration:0 duration_time:0 stream_index:0
[mpeg @ 0x5555655e7700] buffer underflow st=0 bufi=1234 size=2416
pts:464400 pts_time:5.16 dts:460800 dts_time:5.12 duration:0 duration_time:0 stream_index:0
[mpeg @ 0x5555655e7700] buffer underflow st=0 bufi=850 size=3434
[mpeg @ 0x5555655e7700] buffer underflow st=0 bufi=2891 size=3434
pts:468000 pts_time:5.2 dts:464400 dts_time:5.16 duration:0 duration_time:0 stream_index:0
[mpeg @ 0x5555655e7700] buffer underflow st=0 bufi=1489 size=2012
pts:471600 pts_time:5.24 dts:468000 dts_time:5.2 duration:0 duration_time:0 stream_index:0
[mpeg @ 0x5555655e7700] buffer underflow st=0 bufi=1509 size=10575
[mpeg @ 0x5555655e7700] buffer underflow st=0 bufi=3550 size=10575
[mpeg @ 0x5555655e7700] buffer underflow st=0 bufi=5591 size=10575
[mpeg @ 0x5555655e7700] buffer underflow st=0 bufi=7632 size=10575
[mpeg @ 0x5555655e7700] buffer underflow st=0 bufi=9673 size=10575
pts:475200 pts_time:5.28 dts:471600 dts_time:5.24 duration:0 duration_time:0 stream_index:0
[mpeg @ 0x5555655e7700] buffer underflow st=0 bufi=1130 size=2888
pts:478800 pts_time:5.32 dts:475200 dts_time:5.28 duration:0 duration_time:0 stream_index:0
[mpeg @ 0x5555655e7700] buffer underflow st=0 bufi=274 size=2480
[mpeg @ 0x5555655e7700] buffer underflow st=0 bufi=2315 size=2480
pts:482400 pts_time:5.36 dts:478800 dts_time:5.32 duration:0 duration_time:0 stream_index:0
[mpeg @ 0x5555655e7700] buffer underflow st=0 bufi=1867 size=3244
pts:486000 pts_time:5.4 dts:482400 dts_time:5.36 duration:0 duration_time:0 stream_index:0
[mpeg @ 0x5555655e7700] buffer underflow st=0 bufi=655 size=1700
pts:489600 pts_time:5.44 dts:486000 dts_time:5.4 duration:0 duration_time:0 stream_index:0
[mpeg @ 0x5555655e7700] buffer underflow st=0 bufi=987 size=2088
pts:493200 pts_time:5.48 dts:489600 dts_time:5.44 duration:0 duration_time:0 stream_index:0
[mpeg @ 0x5555655e7700] buffer underflow st=0 bufi=931 size=3454
[mpeg @ 0x5555655e7700] buffer underflow st=0 bufi=2972 size=3454
pts:496800 pts_time:5.52 dts:493200 dts_time:5.48 duration:0 duration_time:0 stream_index:0
[mpeg @ 0x5555655e7700] buffer underflow st=0 bufi=1550 size=2687
pts:500400 pts_time:5.56 dts:496800 dts_time:5.52 duration:0 duration_time:0 stream_index:0
[mpeg @ 0x5555655e7700] buffer underflow st=0 bufi=895 size=2225
pts:504000 pts_time:5.6 dts:500400 dts_time:5.56 duration:0 duration_time:0 stream_index:0
[mpeg @ 0x5555655e7700] buffer underflow st=0 bufi=702 size=2547
pts:507600 pts_time:5.64 dts:504000 dts_time:5.6 duration:0 duration_time:0 stream_index:0
[mpeg @ 0x5555655e7700] buffer underflow st=0 bufi=187 size=1538
pts:511200 pts_time:5.68 dts:507600 dts_time:5.64 duration:0 duration_time:0 stream_index:0
[mpeg @ 0x5555655e7700] buffer underflow st=0 bufi=681 size=2599
pts:514800 pts_time:5.72 dts:511200 dts_time:5.68 duration:0 duration_time:0 stream_index:0
[mpeg @ 0x5555655e7700] buffer underflow st=0 bufi=114 size=9166
[mpeg @ 0x5555655e7700] buffer underflow st=0 bufi=2155 size=9166
[mpeg @ 0x5555655e7700] buffer underflow st=0 bufi=4196 size=9166
[mpeg @ 0x5555655e7700] buffer underflow st=0 bufi=6237 size=9166
[mpeg @ 0x5555655e7700] buffer underflow st=0 bufi=8278 size=9166
pts:518400 pts_time:5.76 dts:514800 dts_time:5.72 duration:0 duration_time:0 stream_index:0
[mpeg @ 0x5555655e7700] buffer underflow st=0 bufi=1144 size=1708
pts:522000 pts_time:5.8 dts:518400 dts_time:5.76 duration:0 duration_time:0 stream_index:0
[mpeg @ 0x5555655e7700] buffer underflow st=0 bufi=1468 size=2043
pts:525600 pts_time:5.84 dts:522000 dts_time:5.8 duration:0 duration_time:0 stream_index:0
[mpeg @ 0x5555655e7700] buffer underflow st=0 bufi=1457 size=3166
pts:529200 pts_time:5.88 dts:525600 dts_time:5.84 duration:0 duration_time:0 stream_index:0
[mpeg @ 0x5555655e7700] buffer underflow st=0 bufi=323 size=1611
pts:532800 pts_time:5.92 dts:529200 dts_time:5.88 duration:0 duration_time:0 stream_index:0
[mpeg @ 0x5555655e7700] buffer underflow st=0 bufi=744 size=1941
pts:536400 pts_time:5.96 dts:532800 dts_time:5.92 duration:0 duration_time:0 stream_index:0
[mpeg @ 0x5555655e7700] buffer underflow st=0 bufi=835 size=2722
pts:540000 pts_time:6 dts:536400 dts_time:5.96 duration:0 duration_time:0 stream_index:0
[mpeg @ 0x5555655e7700] buffer underflow st=0 bufi=145 size=2994
[mpeg @ 0x5555655e7700] buffer underflow st=0 bufi=2186 size=2994
pts:543600 pts_time:6.04 dts:540000 dts_time:6 duration:0 duration_time:0 stream_index:0
[mpeg @ 0x5555655e7700] buffer underflow st=0 bufi=1224 size=1636
pts:547200 pts_time:6.08 dts:543600 dts_time:6.04 duration:0 duration_time:0 stream_index:0
[mpeg @ 0x5555655e7700] buffer underflow st=0 bufi=1620 size=1951
pts:550800 pts_time:6.12 dts:547200 dts_time:6.08 duration:0 duration_time:0 stream_index:0
[mpeg @ 0x5555655e7700] buffer underflow st=0 bufi=1701 size=2606
pts:554400 pts_time:6.16 dts:550800 dts_time:6.12 duration:0 duration_time:0 stream_index:0
[mpeg @ 0x5555655e7700] buffer underflow st=0 bufi=1127 size=1843
pts:558000 pts_time:6.2 dts:554400 dts_time:6.16 duration:0 duration_time:0 stream_index:0
[mpeg @ 0x5555655e7700] buffer underflow st=0 bufi=1316 size=10190
[mpeg @ 0x5555655e7700] buffer underflow st=0 bufi=3357 size=10190
[mpeg @ 0x5555655e7700] buffer underflow st=0 bufi=5398 size=10190
[mpeg @ 0x5555655e7700] buffer underflow st=0 bufi=7439 size=10190
[mpeg @ 0x5555655e7700] buffer underflow st=0 bufi=9480 size=10190
pts:561600 pts_time:6.24 dts:558000 dts_time:6.2 duration:0 duration_time:0 stream_index:0
[mpeg @ 0x5555655e7700] buffer underflow st=0 bufi=1322 size=2348
pts:565200 pts_time:6.28 dts:561600 dts_time:6.24 duration:0 duration_time:0 stream_index:0
[mpeg @ 0x5555655e7700] buffer underflow st=0 bufi=994 size=2198
pts:568800 pts_time:6.32 dts:565200 dts_time:6.28 duration:0 duration_time:0 stream_index:0
[mpeg @ 0x5555655e7700] buffer underflow st=0 bufi=828 size=2851
pts:572400 pts_time:6.36 dts:568800 dts_time:6.32 duration:0 duration_time:0 stream_index:0
[mpeg @ 0x5555655e7700] buffer underflow st=0 bufi=9 size=1540
pts:576000 pts_time:6.4 dts:572400 dts_time:6.36 duration:0 duration_time:0 stream_index:0
[mpeg @ 0x5555655e7700] buffer underflow st=0 bufi=501 size=1753
pts:579600 pts_time:6.44 dts:576000 dts_time:6.4 duration:0 duration_time:0 stream_index:0
[mpeg @ 0x5555655e7700] buffer underflow st=0 bufi=780 size=3012
[mpeg @ 0x5555655e7700] buffer underflow st=0 bufi=2821 size=3012
pts:583200 pts_time:6.48 dts:579600 dts_time:6.44 duration:0 duration_time:0 stream_index:0
[mpeg @ 0x5555655e7700] buffer underflow st=0 bufi=1841 size=2676
pts:586800 pts_time:6.52 dts:583200 dts_time:6.48 duration:0 duration_time:0 stream_index:0
[mpeg @ 0x5555655e7700] buffer underflow st=0 bufi=1197 size=1582
pts:590400 pts_time:6.56 dts:586800 dts_time:6.52 duration:0 duration_time:0 stream_index:0
[mpeg @ 0x5555655e7700] buffer underflow st=0 bufi=1647 size=1961
pts:594000 pts_time:6.6 dts:590400 dts_time:6.56 duration:0 duration_time:0 stream_index:0
[mpeg @ 0x5555655e7700] buffer underflow st=0 bufi=1718 size=1940
pts:597600 pts_time:6.64 dts:594000 dts_time:6.6 duration:0 duration_time:0 stream_index:0
[mpeg @ 0x5555655e7700] buffer underflow st=0 bufi=1810 size=2641
pts:601200 pts_time:6.68 dts:597600 dts_time:6.64 duration:0 duration_time:0 stream_index:0
[mpeg @ 0x5555655e7700] buffer underflow st=0 bufi=1201 size=9162
[mpeg @ 0x5555655e7700] buffer underflow st=0 bufi=3242 size=9162
[mpeg @ 0x5555655e7700] buffer underflow st=0 bufi=5283 size=9162
[mpeg @ 0x5555655e7700] buffer underflow st=0 bufi=7324 size=9162
pts:604800 pts_time:6.72 dts:601200 dts_time:6.68 duration:0 duration_time:0 stream_index:0
[mpeg @ 0x5555655e7700] buffer underflow st=0 bufi=194 size=1677
pts:608400 pts_time:6.76 dts:604800 dts_time:6.72 duration:0 duration_time:0 stream_index:0
[mpeg @ 0x5555655e7700] buffer underflow st=0 bufi=549 size=2015
pts:612000 pts_time:6.8 dts:608400 dts_time:6.76 duration:0 duration_time:0 stream_index:0
[mpeg @ 0x5555655e7700] buffer underflow st=0 bufi=566 size=3146
[mpeg @ 0x5555655e7700] buffer underflow st=0 bufi=2607 size=3146
pts:615600 pts_time:6.84 dts:612000 dts_time:6.8 duration:0 duration_time:0 stream_index:0
[mpeg @ 0x5555655e7700] buffer underflow st=0 bufi=1493 size=1532
pts:619200 pts_time:6.88 dts:615600 dts_time:6.84 duration:0 duration_time:0 stream_index:0
pts:622800 pts_time:6.92 dts:619200 dts_time:6.88 duration:0 duration_time:0 stream_index:0
[mpeg @ 0x5555655e7700] buffer underflow st=0 bufi=24 size=2704
[mpeg @ 0x5555655e7700] buffer underflow st=0 bufi=2065 size=2704
pts:626400 pts_time:6.96 dts:622800 dts_time:6.92 duration:0 duration_time:0 stream_index:0
[mpeg @ 0x5555655e7700] buffer underflow st=0 bufi=1393 size=2710
pts:630000 pts_time:7 dts:626400 dts_time:6.96 duration:0 duration_time:0 stream_index:0
[mpeg @ 0x5555655e7700] buffer underflow st=0 bufi=715 size=1518
pts:633600 pts_time:7.04 dts:630000 dts_time:7 duration:0 duration_time:0 stream_index:0
[mpeg @ 0x5555655e7700] buffer underflow st=0 bufi=1229 size=2101
pts:637200 pts_time:7.08 dts:633600 dts_time:7.04 duration:0 duration_time:0 stream_index:0
[mpeg @ 0x5555655e7700] buffer underflow st=0 bufi=1160 size=2704
pts:640800 pts_time:7.12 dts:637200 dts_time:7.08 duration:0 duration_time:0 stream_index:0
[mpeg @ 0x5555655e7700] buffer underflow st=0 bufi=488 size=1733
pts:644400 pts_time:7.16 dts:640800 dts_time:7.12 duration:0 duration_time:0 stream_index:0
[mpeg @ 0x5555655e7700] buffer underflow st=0 bufi=787 size=10565
[mpeg @ 0x5555655e7700] buffer underflow st=0 bufi=2828 size=10565
[mpeg @ 0x5555655e7700] buffer underflow st=0 bufi=4869 size=10565
[mpeg @ 0x5555655e7700] buffer underflow st=0 bufi=6910 size=10565
[mpeg @ 0x5555655e7700] buffer underflow st=0 bufi=8951 size=10565
pts:648000 pts_time:7.2 dts:644400 dts_time:7.16 duration:0 duration_time:0 stream_index:0
[mpeg @ 0x5555655e7700] buffer underflow st=0 bufi=418 size=2924
[mpeg @ 0x5555655e7700] buffer underflow st=0 bufi=2459 size=2924
pts:651600 pts_time:7.24 dts:648000 dts_time:7.2 duration:0 duration_time:0 stream_index:0
[mpeg @ 0x5555655e7700] buffer underflow st=0 bufi=1567 size=2502
pts:655200 pts_time:7.28 dts:651600 dts_time:7.24 duration:0 duration_time:0 stream_index:0
[mpeg @ 0x5555655e7700] buffer underflow st=0 bufi=1097 size=3301
[mpeg @ 0x5555655e7700] buffer underflow st=0 bufi=3138 size=3301
pts:658800 pts_time:7.32 dts:655200 dts_time:7.28 duration:0 duration_time:0 stream_index:0
pts:662400 pts_time:7.36 dts:658800 dts_time:7.32 duration:0 duration_time:0 stream_index:0
[mpeg @ 0x5555655e7700] buffer underflow st=0 bufi=105 size=2015
pts:666000 pts_time:7.4 dts:662400 dts_time:7.36 duration:0 duration_time:0 stream_index:0
[mpeg @ 0x5555655e7700] buffer underflow st=0 bufi=122 size=3379
[mpeg @ 0x5555655e7700] buffer underflow st=0 bufi=2163 size=3379
pts:669600 pts_time:7.44 dts:666000 dts_time:7.4 duration:0 duration_time:0 stream_index:0
[mpeg @ 0x5555655e7700] buffer underflow st=0 bufi=816 size=2993
[mpeg @ 0x5555655e7700] buffer underflow st=0 bufi=2857 size=2993
pts:673200 pts_time:7.48 dts:669600 dts_time:7.44 duration:0 duration_time:0 stream_index:0
[mpeg @ 0x5555655e7700] buffer underflow st=0 bufi=1896 size=2095
pts:676800 pts_time:7.52 dts:673200 dts_time:7.48 duration:0 duration_time:0 stream_index:0
[mpeg @ 0x5555655e7700] buffer underflow st=0 bufi=1833 size=2714
pts:680400 pts_time:7.56 dts:676800 dts_time:7.52 duration:0 duration_time:0 stream_index:0
[mpeg @ 0x5555655e7700] buffer underflow st=0 bufi=1151 size=2757
pts:684000 pts_time:7.6 dts:680400 dts_time:7.56 duration:0 duration_time:0 stream_index:0
[mpeg @ 0x5555655e7700] buffer underflow st=0 bufi=426 size=2611
[mpeg @ 0x5555655e7700] buffer underflow st=0 bufi=2467 size=2611
pts:687600 pts_time:7.64 dts:684000 dts_time:7.6 duration:0 duration_time:0 stream_index:0
[mpeg @ 0x5555655e7700] buffer underflow st=0 bufi=1888 size=9231
[mpeg @ 0x5555655e7700] buffer underflow st=0 bufi=3929 size=9231
[mpeg @ 0x5555655e7700] buffer underflow st=0 bufi=5970 size=9231
[mpeg @ 0x5555655e7700] buffer underflow st=0 bufi=8011 size=9231
pts:691200 pts_time:7.68 dts:687600 dts_time:7.64 duration:0 duration_time:0 stream_index:0
[mpeg @ 0x5555655e7700] buffer underflow st=0 bufi=812 size=1256
pts:694800 pts_time:7.72 dts:691200 dts_time:7.68 duration:0 duration_time:0 stream_index:0
pts:698400 pts_time:7.76 dts:694800 dts_time:7.72 duration:0 duration_time:0 stream_index:0
[mpeg @ 0x5555655e7700] buffer underflow st=0 bufi=30 size=2748
[mpeg @ 0x5555655e7700] buffer underflow st=0 bufi=2071 size=2748
pts:702000 pts_time:7.8 dts:698400 dts_time:7.76 duration:0 duration_time:0 stream_index:0
pts:705600 pts_time:7.84 dts:702000 dts_time:7.8 duration:0 duration_time:0 stream_index:0
[mpeg @ 0x5555655e7700] buffer underflow st=0 bufi=0 size=1519
pts:709200 pts_time:7.88 dts:705600 dts_time:7.84 duration:0 duration_time:0 stream_index:0
[mpeg @ 0x5555655e7700] buffer underflow st=0 bufi=513 size=2458
pts:712800 pts_time:7.92 dts:709200 dts_time:7.88 duration:0 duration_time:0 stream_index:0
[mpeg @ 0x5555655e7700] buffer underflow st=0 bufi=87 size=2321
[mpeg @ 0x5555655e7700] buffer underflow st=0 bufi=2128 size=2321
pts:716400 pts_time:7.96 dts:712800 dts_time:7.92 duration:0 duration_time:0 stream_index:0
pts:720000 pts_time:8 dts:716400 dts_time:7.96 duration:0 duration_time:0 stream_index:0
[mpeg @ 0x5555655e7700] buffer underflow st=0 bufi=516 size=2267
pts:723600 pts_time:8.04 dts:720000 dts_time:8 duration:0 duration_time:0 stream_index:0
[mpeg @ 0x5555655e7700] buffer underflow st=0 bufi=281 size=2690
[mpeg @ 0x5555655e7700] buffer underflow st=0 bufi=2322 size=2690
pts:727200 pts_time:8.08 dts:723600 dts_time:8.04 duration:0 duration_time:0 stream_index:0
[mpeg @ 0x5555655e7700] buffer underflow st=0 bufi=1664 size=2006
pts:730800 pts_time:8.12 dts:727200 dts_time:8.08 duration:0 duration_time:0 stream_index:0
[mpeg @ 0x5555655e7700] buffer underflow st=0 bufi=1690 size=10277
[mpeg @ 0x5555655e7700] buffer underflow st=0 bufi=3731 size=10277
[mpeg @ 0x5555655e7700] buffer underflow st=0 bufi=5772 size=10277
[mpeg @ 0x5555655e7700] buffer underflow st=0 bufi=7813 size=10277
[mpeg @ 0x5555655e7700] buffer underflow st=0 bufi=9854 size=10277
pts:734400 pts_time:8.16 dts:730800 dts_time:8.12 duration:0 duration_time:0 stream_index:0
[mpeg @ 0x5555655e7700] buffer underflow st=0 bufi=1609 size=2360
pts:738000 pts_time:8.2 dts:734400 dts_time:8.16 duration:0 duration_time:0 stream_index:0
[mpeg @ 0x5555655e7700] buffer underflow st=0 bufi=1281 size=2210
pts:741600 pts_time:8.24 dts:738000 dts_time:8.2 duration:0 duration_time:0 stream_index:0
[mpeg @ 0x5555655e7700] buffer underflow st=0 bufi=1103 size=2848
pts:745200 pts_time:8.28 dts:741600 dts_time:8.24 duration:0 duration_time:0 stream_index:0
[mpeg @ 0x5555655e7700] buffer underflow st=0 bufi=287 size=1608
pts:748800 pts_time:8.32 dts:745200 dts_time:8.28 duration:0 duration_time:0 stream_index:0
[mpeg @ 0x5555655e7700] buffer underflow st=0 bufi=711 size=1777
pts:752400 pts_time:8.36 dts:748800 dts_time:8.32 duration:0 duration_time:0 stream_index:0
[mpeg @ 0x5555655e7700] buffer underflow st=0 bufi=966 size=2992
pts:756000 pts_time:8.4 dts:752400 dts_time:8.36 duration:0 duration_time:0 stream_index:0
[mpeg @ 0x5555655e7700] buffer underflow st=0 bufi=6 size=2078
[mpeg @ 0x5555655e7700] buffer underflow st=0 bufi=2047 size=2078
pts:759600 pts_time:8.44 dts:756000 dts_time:8.4 duration:0 duration_time:0 stream_index:0
pts:763200 pts_time:8.48 dts:759600 dts_time:8.44 duration:0 duration_time:0 stream_index:0
[mpeg @ 0x5555655e7700] buffer underflow st=0 bufi=332 size=2395
[mpeg @ 0x5555655e7700] buffer underflow st=0 bufi=2373 size=2395
pts:766800 pts_time:8.52 dts:763200 dts_time:8.48 duration:0 duration_time:0 stream_index:0
pts:770400 pts_time:8.56 dts:766800 dts_time:8.52 duration:0 duration_time:0 stream_index:0
[mpeg @ 0x5555655e7700] buffer underflow st=0 bufi=198 size=2087
pts:774000 pts_time:8.6 dts:770400 dts_time:8.56 duration:0 duration_time:0 stream_index:0
[mpeg @ 0x5555655e7700] buffer underflow st=0 bufi=143 size=9212
[mpeg @ 0x5555655e7700] buffer underflow st=0 bufi=2184 size=9212
[mpeg @ 0x5555655e7700] buffer underflow st=0 bufi=4225 size=9212
[mpeg @ 0x5555655e7700] buffer underflow st=0 bufi=6266 size=9212
[mpeg @ 0x5555655e7700] buffer underflow st=0 bufi=8307 size=9212
pts:777600 pts_time:8.64 dts:774000 dts_time:8.6 duration:0 duration_time:0 stream_index:0
[mpeg @ 0x5555655e7700] buffer underflow st=0 bufi=1127 size=1670
pts:781200 pts_time:8.68 dts:777600 dts_time:8.64 duration:0 duration_time:0 stream_index:0
[mpeg @ 0x5555655e7700] buffer underflow st=0 bufi=1489 size=2010
pts:784800 pts_time:8.72 dts:781200 dts_time:8.68 duration:0 duration_time:0 stream_index:0
[mpeg @ 0x5555655e7700] buffer underflow st=0 bufi=1511 size=3155
pts:788400 pts_time:8.76 dts:784800 dts_time:8.72 duration:0 duration_time:0 stream_index:0
[mpeg @ 0x5555655e7700] buffer underflow st=0 bufi=388 size=1506
pts:792000 pts_time:8.8 dts:788400 dts_time:8.76 duration:0 duration_time:0 stream_index:0
[mpeg @ 0x5555655e7700] buffer underflow st=0 bufi=914 size=2012
pts:795600 pts_time:8.84 dts:792000 dts_time:8.8 duration:0 duration_time:0 stream_index:0
[mpeg @ 0x5555655e7700] buffer underflow st=0 bufi=934 size=2738
pts:799200 pts_time:8.88 dts:795600 dts_time:8.84 duration:0 duration_time:0 stream_index:0
[mpeg @ 0x5555655e7700] buffer underflow st=0 bufi=228 size=2739
[mpeg @ 0x5555655e7700] buffer underflow st=0 bufi=2269 size=2739
pts:802800 pts_time:8.92 dts:799200 dts_time:8.88 duration:0 duration_time:0 stream_index:0
pts:806400 pts_time:8.96 dts:802800 dts_time:8.92 duration:0 duration_time:0 stream_index:0
[mpeg @ 0x5555655e7700] buffer underflow st=0 bufi=1562 size=1576
pts:810000 pts_time:9 dts:806400 dts_time:8.96 duration:0 duration_time:0 stream_index:0
[mpeg @ 0x5555655e7700] buffer underflow st=0 bufi=14 size=2699
[mpeg @ 0x5555655e7700] buffer underflow st=0 bufi=2055 size=2699
pts:813600 pts_time:9.04 dts:810000 dts_time:9 duration:0 duration_time:0 stream_index:0
[mpeg @ 0x5555655e7700] buffer underflow st=0 bufi=1388 size=1683
pts:817200 pts_time:9.08 dts:813600 dts_time:9.04 duration:0 duration_time:0 stream_index:0
[mpeg @ 0x5555655e7700] buffer underflow st=0 bufi=1737 size=10190
[mpeg @ 0x5555655e7700] buffer underflow st=0 bufi=3778 size=10190
[mpeg @ 0x5555655e7700] buffer underflow st=0 bufi=5819 size=10190
[mpeg @ 0x5555655e7700] buffer underflow st=0 bufi=7860 size=10190
[mpeg @ 0x5555655e7700] buffer underflow st=0 bufi=9901 size=10190
pts:820800 pts_time:9.12 dts:817200 dts_time:9.08 duration:0 duration_time:0 stream_index:0
[mpeg @ 0x5555655e7700] buffer underflow st=0 bufi=1743 size=2374
pts:824400 pts_time:9.16 dts:820800 dts_time:9.12 duration:0 duration_time:0 stream_index:0
[mpeg @ 0x5555655e7700] buffer underflow st=0 bufi=1401 size=2210
pts:828000 pts_time:9.2 dts:824400 dts_time:9.16 duration:0 duration_time:0 stream_index:0
[mpeg @ 0x5555655e7700] buffer underflow st=0 bufi=1223 size=3191
pts:831600 pts_time:9.24 dts:828000 dts_time:9.2 duration:0 duration_time:0 stream_index:0
[mpeg @ 0x5555655e7700] buffer underflow st=0 bufi=64 size=1674
pts:835200 pts_time:9.28 dts:831600 dts_time:9.24 duration:0 duration_time:0 stream_index:0
[mpeg @ 0x5555655e7700] buffer underflow st=0 bufi=410 size=2060
pts:838800 pts_time:9.32 dts:835200 dts_time:9.28 duration:0 duration_time:0 stream_index:0
[mpeg @ 0x5555655e7700] buffer underflow st=0 bufi=382 size=3537
[mpeg @ 0x5555655e7700] buffer underflow st=0 bufi=2423 size=3537
pts:842400 pts_time:9.36 dts:838800 dts_time:9.32 duration:0 duration_time:0 stream_index:0
[mpeg @ 0x5555655e7700] buffer underflow st=0 bufi=918 size=2912
pts:846000 pts_time:9.4 dts:842400 dts_time:9.36 duration:0 duration_time:0 stream_index:0
[mpeg @ 0x5555655e7700] buffer underflow st=0 bufi=38 size=2237
[mpeg @ 0x5555655e7700] buffer underflow st=0 bufi=2079 size=2237
pts:849600 pts_time:9.44 dts:846000 dts_time:9.4 duration:0 duration_time:0 stream_index:0
[mpeg @ 0x5555655e7700] buffer underflow st=0 bufi=1874 size=2773
pts:853200 pts_time:9.48 dts:849600 dts_time:9.44 duration:0 duration_time:0 stream_index:0
[mpeg @ 0x5555655e7700] buffer underflow st=0 bufi=1133 size=2786
pts:856800 pts_time:9.52 dts:853200 dts_time:9.48 duration:0 duration_time:0 stream_index:0
[mpeg @ 0x5555655e7700] buffer underflow st=0 bufi=379 size=2497
[mpeg @ 0x5555655e7700] buffer underflow st=0 bufi=2420 size=2497
pts:860400 pts_time:9.56 dts:856800 dts_time:9.52 duration:0 duration_time:0 stream_index:0
[mpeg @ 0x5555655e7700] buffer underflow st=0 bufi=1955 size=9210
[mpeg @ 0x5555655e7700] buffer underflow st=0 bufi=3996 size=9210
[mpeg @ 0x5555655e7700] buffer underflow st=0 bufi=6037 size=9210
[mpeg @ 0x5555655e7700] buffer underflow st=0 bufi=8078 size=9210
pts:864000 pts_time:9.6 dts:860400 dts_time:9.56 duration:0 duration_time:0 stream_index:0
[mpeg @ 0x5555655e7700] buffer underflow st=0 bufi=900 size=1985
pts:867600 pts_time:9.64 dts:864000 dts_time:9.6 duration:0 duration_time:0 stream_index:0
[mpeg @ 0x5555655e7700] buffer underflow st=0 bufi=947 size=2557
pts:871200 pts_time:9.68 dts:867600 dts_time:9.64 duration:0 duration_time:0 stream_index:0
[mpeg @ 0x5555655e7700] buffer underflow st=0 bufi=422 size=3428
[mpeg @ 0x5555655e7700] buffer underflow st=0 bufi=2463 size=3428
pts:874800 pts_time:9.72 dts:871200 dts_time:9.68 duration:0 duration_time:0 stream_index:0
[mpeg @ 0x5555655e7700] buffer underflow st=0 bufi=1067 size=1590
pts:878400 pts_time:9.76 dts:874800 dts_time:9.72 duration:0 duration_time:0 stream_index:0
[mpeg @ 0x5555655e7700] buffer underflow st=0 bufi=1509 size=1921
pts:882000 pts_time:9.8 dts:878400 dts_time:9.76 duration:0 duration_time:0 stream_index:0
[mpeg @ 0x5555655e7700] buffer underflow st=0 bufi=1620 size=2857
pts:885600 pts_time:9.84 dts:882000 dts_time:9.8 duration:0 duration_time:0 stream_index:0
[mpeg @ 0x5555655e7700] buffer underflow st=0 bufi=795 size=2736
pts:889200 pts_time:9.88 dts:885600 dts_time:9.84 duration:0 duration_time:0 stream_index:0
[mpeg @ 0x5555655e7700] buffer underflow st=0 bufi=91 size=1505
pts:892800 pts_time:9.92 dts:889200 dts_time:9.88 duration:0 duration_time:0 stream_index:0
[mpeg @ 0x5555655e7700] buffer underflow st=0 bufi=618 size=1788
[mpeg @ 0x5555655e7700] buffer underflow st=0 bufi=862 size=2168
pts:896400 pts_time:9.96 dts:892800 dts_time:9.92 duration:0 duration_time:0 stream_index:0
pts:900000 pts_time:10 dts:896400 dts_time:9.96 duration:0 duration_time:0 stream_index:0
